HIERARCHY
ROOT Hips
{
	OFFSET 0.000000 0.000000 0.000000
	CHANNELS 6 Xposition Yposition Zposition Xrotation Yrotation Zrotation
	JOINT LeftUpLeg_virtual
	{
		OFFSET 0.000000 0.000000 0.000000
		CHANNELS 3 Xrotation Yrotation Zrotation
		JOINT LeftUpLeg
		{
			OFFSET 13.026900 -6.336304 -1.092800
			CHANNELS 3 Xrotation Yrotation Zrotation
			JOINT LeftLeg
			{
				OFFSET 0.524474 -46.096886 9.782700
				CHANNELS 3 Xrotation Yrotation Zrotation
				JOINT LeftFoot
				{
					OFFSET -0.524474 -53.427422 -12.948200
					CHANNELS 3 Xrotation Yrotation Zrotation
					JOINT LeftToeBase
					{
						OFFSET 0.192200 -14.009700 16.364100
						CHANNELS 3 Xrotation Yrotation Zrotation
						JOINT LeftToe_End
						{
							OFFSET -1.784700 -0.561700 9.474800
							CHANNELS 3 Xrotation Yrotation Zrotation
							End Site
							{
								OFFSET 0 0 0
							}
						}
					}
				}
			}
		}
	}
	JOINT RightUpLeg_virtual
	{
		OFFSET 0.000000 0.000000 0.000000
		CHANNELS 3 Xrotation Yrotation Zrotation
		JOINT RightUpLeg
		{
			OFFSET -12.883000 -6.336304 -1.092800
			CHANNELS 3 Xrotation Yrotation Zrotation
			JOINT RightLeg
			{
				OFFSET -0.524587 -46.096825 9.782800
				CHANNELS 3 Xrotation Yrotation Zrotation
				JOINT RightFoot
				{
					OFFSET 0.524587 -53.427383 -12.948300
					CHANNELS 3 Xrotation Yrotation Zrotation
					JOINT RightToeBase
					{
						OFFSET -0.192200 -14.009700 16.364100
						CHANNELS 3 Xrotation Yrotation Zrotation
						JOINT RightToe_End
						{
							OFFSET 1.784700 -0.561700 9.474800
							CHANNELS 3 Xrotation Yrotation Zrotation
							End Site
							{
								OFFSET 0 0 0
							}
						}
					}
				}
			}
		}
	}
	JOINT Spine_virtual
	{
		OFFSET 0.000000 0.000000 0.000000
		CHANNELS 3 Xrotation Yrotation Zrotation
		JOINT Spine
		{
			OFFSET 0.072000 7.257294 -0.789700
			CHANNELS 3 Xrotation Yrotation Zrotation
			JOINT Spine1
			{
				OFFSET 0.000000 12.508769 -0.658067
				CHANNELS 3 Xrotation Yrotation Zrotation
				JOINT Spine1_split
				{
					OFFSET 0.000000 12.508769 -0.658067
					CHANNELS 3 Xrotation Yrotation Zrotation
					JOINT Spine2
					{
						OFFSET 0.000000 12.508769 -0.658067
						CHANNELS 3 Xrotation Yrotation Zrotation
						JOINT Neck_virtual
						{
							OFFSET 0.000000 0.000000 0.000000
							CHANNELS 3 Xrotation Yrotation Zrotation
							JOINT Neck
							{
								OFFSET 0.000000 14.033295 7.520400
								CHANNELS 3 Xrotation Yrotation Zrotation
								JOINT Head
								{
									OFFSET 0.000000 8.198502 5.703100
									CHANNELS 3 Xrotation Yrotation Zrotation
									JOINT HeadTop_End
									{
										OFFSET 0.000000 17.760803 13.332701
										CHANNELS 3 Xrotation Yrotation Zrotation
										End Site
										{
											OFFSET 0 0 0
										}
									}
								}
							}
						}
						JOINT LeftShoulder_virtual
						{
							OFFSET 0.000000 0.000000 0.000000
							CHANNELS 3 Xrotation Yrotation Zrotation
							JOINT LeftShoulder
							{
								OFFSET 6.292450 5.785301 -0.669000
								CHANNELS 3 Xrotation Yrotation Zrotation
								JOINT LeftShoulder_split
								{
									OFFSET 6.292450 5.785301 -0.669000
									CHANNELS 3 Xrotation Yrotation Zrotation
									JOINT LeftArm
									{
										OFFSET 13.907140 -6.093903 1.965100
										CHANNELS 3 Xrotation Yrotation Zrotation
										JOINT LeftForeArm
										{
											OFFSET 34.140198 0.000000 0.000000
											CHANNELS 3 Xrotation Yrotation Zrotation
											JOINT LeftHand
											{
												OFFSET 40.960209 0.000000 0.000000
												CHANNELS 3 Xrotation Yrotation Zrotation
												End Site
												{
													OFFSET 0 0 0
												}
											}
										}
									}
								}
							}
						}
						JOINT RightShoulder_virtual
						{
							OFFSET 0.000000 0.000000 0.000000
							CHANNELS 3 Xrotation Yrotation Zrotation
							JOINT RightShoulder
							{
								OFFSET -6.292450 5.785301 -0.669000
								CHANNELS 3 Xrotation Yrotation Zrotation
								JOINT RightShoulder_split
								{
									OFFSET -6.292450 5.785301 -0.669000
									CHANNELS 3 Xrotation Yrotation Zrotation
									JOINT RightArm
									{
										OFFSET -13.907140 -6.093903 1.965100
										CHANNELS 3 Xrotation Yrotation Zrotation
										JOINT RightForeArm
										{
											OFFSET -34.140198 0.000000 0.000000
											CHANNELS 3 Xrotation Yrotation Zrotation
											JOINT RightHand
											{
												OFFSET -40.960209 0.000000 0.000000
												CHANNELS 3 Xrotation Yrotation Zrotation
												End Site
												{
													OFFSET 0 0 0
												}
											}
										}
									}
								}
							}
						}
					}
				}
			}
		}
	}
}
MOTION
Frames: 10
Frame Time: 0.03333333
2.839217 87.194687 -65.701424 0.000000 0.000000 0.000000 29.308738 -72.513673 27.003795 -44.906226 -1.077212 24.880776 69.703153 -1.957952 2.137821 -15.136485 15.881908 -23.411715 -6.105712 -4.010471 -1.517977 0.000000 0.000000 0.000000 31.977242 -72.393858 29.974050 -53.105055 1.154621 -11.052881 74.524508 8.950523 -6.968775 -29.227141 -4.407253 18.571035 1.393797 3.852755 -20.880033 0.000000 0.000000 0.000000 27.565947 -71.123825 24.435077 2.029839 16.966922 -0.710772 12.748023 13.514315 -6.796469 0.328958 -1.250222 0.212387 0.000000 0.000000 0.000000 14.331081 14.586236 -6.315965 -3.741039 3.192099 12.127702 -33.556248 -17.421919 -13.936384 0.000000 0.000000 0.000000 10.167485 13.672552 -6.459794 7.517389 -7.666437 9.558288 2.258383 3.276478 -3.365413 -95.141735 -26.169066 -66.389589 11.787525 -69.782479 4.248532 0.000000 0.000000 0.000000 11.310500 13.455947 -6.042343 7.854736 -6.061145 -10.598673 -12.072423 3.503346 -0.514736 -56.252694 4.373792 24.111032 -16.412074 37.016822 18.095920 0.000000 0.000000 0.000000 
4.420900 84.923759 -66.222198 0.000000 0.000000 0.000000 34.179984 -70.613924 32.057158 -51.691630 -2.405558 25.473182 71.522080 -3.301487 2.299786 -14.548409 15.384781 -23.841339 -4.631654 -3.990649 -1.712621 0.000000 0.000000 0.000000 34.289636 -70.494744 32.850420 -56.950978 2.746209 -11.554145 78.279316 8.456073 -6.495419 -29.462550 -4.957252 19.206531 0.935783 3.874307 -19.912298 0.000000 0.000000 0.000000 31.294154 -68.742043 28.525409 4.609988 16.247434 -0.912762 13.112384 13.025940 -6.801105 0.331841 -1.438939 0.169536 0.000000 0.000000 0.000000 14.317390 14.120269 -5.949977 -4.742433 3.066201 12.423312 -36.132052 -9.230980 -14.705389 0.000000 0.000000 0.000000 10.229941 13.183296 -6.665877 6.493047 -8.440531 7.680011 1.168220 4.127406 -3.796818 -79.034441 -17.972557 -60.590717 15.897612 -69.733773 7.356852 0.000000 0.000000 0.000000 11.604313 13.143877 -5.837789 7.284259 -7.189485 -6.733063 -13.437191 4.567157 -0.849266 -47.066140 0.324729 24.050658 -13.457278 35.162770 19.669497 0.000000 0.000000 0.000000 
5.519929 83.488922 -66.240219 0.000000 0.000000 0.000000 38.023458 -68.774186 36.408610 -57.184253 -2.998518 25.696999 71.727471 -4.523192 2.355223 -12.925983 14.546259 -23.159122 -4.534860 -4.046866 -2.117979 0.000000 0.000000 0.000000 35.778956 -68.538367 35.184569 -60.393113 4.849977 -12.342915 80.707134 8.346387 -6.157262 -28.691617 -5.109146 20.864140 0.290053 3.846292 -18.160467 0.000000 0.000000 0.000000 33.695434 -66.363252 31.503278 6.774162 15.429585 -0.911970 13.398205 12.490333 -6.678325 0.319717 -1.538216 0.103384 0.000000 0.000000 0.000000 14.385782 13.576570 -5.484700 -6.134532 2.776011 12.533016 -37.696702 -1.282734 -15.349573 0.000000 0.000000 0.000000 10.217445 12.694024 -6.770698 5.531300 -8.578801 6.121322 0.451512 4.504575 -3.616892 -62.603779 -8.600940 -57.925899 17.456261 -67.169849 8.668026 0.000000 0.000000 0.000000 11.928464 12.753245 -5.601437 6.942600 -7.655940 -3.277066 -14.148070 5.790659 -1.078617 -37.022040 -6.128750 25.989462 -10.401528 34.208815 20.691174 0.000000 0.000000 0.000000 
6.230061 82.661278 -66.218369 0.000000 0.000000 0.000000 39.833482 -67.011806 38.901749 -61.066078 -2.917381 25.724593 70.988273 -5.837051 2.357591 -10.798668 13.404110 -21.929330 -5.400846 -4.078768 -2.766743 0.000000 0.000000 0.000000 36.399530 -66.658944 36.667030 -62.554848 6.962451 -13.152618 81.873464 8.664917 -6.156291 -28.024625 -4.922797 23.416907 -0.916476 3.905419 -16.022309 0.000000 0.000000 0.000000 34.427220 -64.296157 32.971341 8.331875 14.659121 -0.543263 13.620650 11.966906 -6.535409 0.268691 -1.514498 0.101681 0.000000 0.000000 0.000000 14.490998 12.999760 -5.086109 -7.780147 2.374581 12.385691 -38.217285 5.738137 -15.784408 0.000000 0.000000 0.000000 10.268079 12.200477 -6.894992 4.688349 -8.272773 4.808055 0.029430 4.355816 -3.002496 -46.665502 0.173400 -59.197229 17.609416 -63.444753 8.966771 0.000000 0.000000 0.000000 12.349446 12.334920 -5.427723 6.781624 -7.120383 -0.021158 -14.786239 6.753027 -1.171125 -26.102275 -13.547543 30.408012 -7.357144 33.392795 20.929431 0.000000 0.000000 0.000000 
6.389246 82.404694 -66.117462 0.000000 0.000000 0.000000 39.228297 -65.487731 39.147694 -62.896917 -2.278499 25.536389 69.320929 -7.291230 2.295934 -8.918055 12.133644 -20.540254 -6.778556 -4.004455 -3.461942 0.000000 0.000000 0.000000 36.005141 -64.737243 36.902177 -62.643702 8.524348 -14.058117 81.736539 9.193275 -6.401063 -27.986700 -4.709673 25.943048 -2.123343 4.031485 -13.812553 0.000000 0.000000 0.000000 33.507242 -62.518716 32.798073 9.249230 14.022007 0.191199 13.766267 11.447621 -6.445091 0.134398 -1.438369 0.132138 0.000000 0.000000 0.000000 14.596708 12.410173 -4.876468 -9.528399 2.016764 11.952527 -37.923898 11.203058 -15.971868 0.000000 0.000000 0.000000 10.462184 11.674546 -7.125898 3.940999 -7.813785 3.679510 -0.661860 4.106855 -2.442009 -32.385622 7.070860 -63.677901 17.490962 -59.671524 9.088184 0.000000 0.000000 0.000000 12.870201 11.901841 -5.351086 6.701963 -5.549931 2.971639 -15.300032 7.444149 -1.053713 -15.653988 -20.145076 36.553926 -4.638055 32.021812 20.410928 0.000000 0.000000 0.000000 
6.349056 82.855713 -66.089966 0.000000 0.000000 0.000000 36.481365 -64.079161 37.285070 -62.872219 -1.408638 24.905421 67.109320 -8.789325 2.293614 -7.397596 10.821716 -19.446252 -7.513921 -3.807912 -4.079811 0.000000 0.000000 0.000000 34.305667 -63.061019 35.605769 -60.790050 8.900601 -15.162590 80.274435 9.510764 -6.609260 -28.526300 -5.074066 27.712251 -2.611419 4.127838 -11.784154 0.000000 0.000000 0.000000 31.554880 -60.982074 31.475055 9.558325 13.520243 1.173152 13.814679 10.919316 -6.411513 0.010562 -1.378977 0.209010 0.000000 0.000000 0.000000 14.694990 11.825912 -4.830604 -11.223994 1.730894 11.206784 -37.137023 14.942256 -15.830876 0.000000 0.000000 0.000000 10.713306 11.114475 -7.381210 3.296789 -7.245506 2.730608 -1.493942 3.630043 -2.139750 -21.186127 11.622163 -69.538258 17.307704 -56.361580 9.131040 0.000000 0.000000 0.000000 13.346302 11.433798 -5.338120 6.585744 -3.349031 5.494079 -15.595786 7.487115 -1.079007 -7.775044 -25.000618 42.884097 -2.624955 29.877296 19.367739 0.000000 0.000000 0.000000 
6.096262 84.174667 -66.042610 0.000000 0.000000 0.000000 32.312406 -62.567210 33.900124 -61.281140 -0.500745 23.814616 64.497989 -10.306497 2.403208 -6.317783 9.316335 -18.858315 -7.450604 -3.582522 -4.305106 0.000000 0.000000 0.000000 31.557725 -61.612514 33.186489 -57.151215 7.801831 -16.517878 77.729786 9.590824 -6.642795 -29.169679 -6.273486 28.594514 -2.703854 4.168793 -10.070960 0.000000 0.000000 0.000000 28.805971 -59.429052 29.196156 9.414549 13.062236 2.128405 13.764283 10.358562 -6.376083 -0.039068 -1.325985 0.274349 0.000000 0.000000 0.000000 14.748318 11.255077 -4.854450 -12.715485 1.561904 10.194944 -36.229803 17.100483 -15.229109 0.000000 0.000000 0.000000 10.941704 10.525650 -7.509416 2.710898 -6.498251 1.962622 -2.513337 3.042293 -2.149940 -13.743042 14.392107 -75.021937 17.035660 -53.479244 8.947436 0.000000 0.000000 0.000000 13.650529 10.906589 -5.292507 6.413105 -1.086621 7.334096 -15.724378 6.995210 -1.074327 -3.608945 -28.153116 48.041823 -1.532894 27.148486 18.096231 0.000000 0.000000 0.000000 
5.685107 86.267029 -65.927284 0.000000 0.000000 0.000000 27.653348 -60.805021 29.930770 -58.549420 0.396339 22.222301 61.381250 -11.623951 2.561752 -5.888815 7.545088 -18.362024 -6.449876 -3.443877 -4.015511 0.000000 0.000000 0.000000 27.771032 -59.991116 29.771309 -52.274665 5.317482 -18.040638 74.366704 9.497911 -6.471854 -29.538881 -8.083566 28.739831 -2.662905 4.165826 -8.814398 0.000000 0.000000 0.000000 25.771680 -57.614906 26.465552 8.974986 12.556429 2.758712 13.650970 9.752433 -6.244319 -0.014822 -1.282623 0.313951 0.000000 0.000000 0.000000 14.740848 10.700425 -4.825962 -13.819746 1.529679 8.981348 -35.455871 17.824391 -14.219205 0.000000 0.000000 0.000000 11.089118 9.923621 -7.396910 2.217433 -5.638303 1.354594 -3.506342 2.338784 -2.570390 -9.607392 15.961515 -79.252884 16.452841 -50.974559 8.402579 0.000000 0.000000 0.000000 13.732579 10.317614 -5.127213 6.228083 0.809774 8.380867 -15.206226 6.185874 -1.112940 -3.026647 -29.994356 51.619954 -1.348259 24.153282 16.825932 0.000000 0.000000 0.000000 
5.005939 88.941734 -65.743301 0.000000 0.000000 0.000000 23.117897 -58.574992 25.875028 -55.464565 0.958638 20.190017 58.024376 -12.643443 2.816969 -5.766814 5.413404 -17.859597 -4.427730 -3.432554 -3.347584 0.000000 0.000000 0.000000 23.628998 -58.193902 26.030657 -46.835338 1.870388 -19.466220 70.264751 9.304832 -6.085072 -29.527509 -10.225581 28.404907 -2.504690 4.129647 -8.032985 0.000000 0.000000 0.000000 22.510046 -55.521740 23.398208 8.246443 11.942923 2.897820 13.471311 9.106804 -5.933218 0.089178 -1.238884 0.322098 0.000000 0.000000 0.000000 14.644042 10.154100 -4.630489 -14.443198 1.560019 7.645640 -34.820673 17.506992 -12.946700 0.000000 0.000000 0.000000 11.123997 9.324769 -6.968839 1.826657 -4.597544 0.962261 -4.005260 1.800030 -2.849141 -7.748118 16.212250 -81.874167 15.484891 -48.787194 7.436646 0.000000 0.000000 0.000000 13.587594 9.672909 -4.796715 6.062913 2.002246 8.697906 -13.990446 5.338299 -1.116834 -4.634516 -30.757844 54.076274 -1.864658 21.303162 15.696786 0.000000 0.000000 0.000000 
4.066885 91.926682 -65.412239 0.000000 0.000000 0.000000 19.017507 -56.068500 22.037324 -52.098716 1.264416 17.925077 54.348454 -13.219025 3.059388 -5.660382 3.091152 -17.217341 -2.420060 -3.520401 -2.344501 0.000000 0.000000 0.000000 19.589809 -56.192793 22.350980 -41.015668 -1.904627 -20.485349 65.293596 9.136479 -5.545825 -29.221947 -12.413383 27.668381 -2.219634 4.080156 -7.643485 0.000000 0.000000 0.000000 19.220815 -53.146948 20.175373 7.276895 11.253922 2.517921 13.229289 8.454271 -5.392576 0.179363 -1.120670 0.299438 0.000000 0.000000 0.000000 14.515906 9.620479 -4.226281 -14.576004 1.672492 6.295584 -34.169756 16.431808 -11.615519 0.000000 0.000000 0.000000 11.067585 8.751583 -6.242940 1.514982 -3.522322 0.753524 -4.361828 1.543272 -2.927189 -7.121418 15.185080 -83.152574 14.132645 -47.122585 6.173973 0.000000 0.000000 0.000000 13.296077 8.998843 -4.304912 5.922978 2.470923 8.383128 -12.531348 4.473013 -0.772738 -6.707005 -30.541717 56.049543 -2.906276 18.975773 14.864402 0.000000 0.000000 0.000000 
